<mxfile host="app.diagrams.net" modified="2021-06-22T00:04:28.175Z" agent="5.0 (Windows NT 10.0; Win64; x64) AppleWebKit/537.36 (KHTML, like Gecko) Chrome/91.0.4472.77 Safari/537.36" etag="-3vSEwpd9Kv4cSr6nt_c" version="14.8.0" type="github">
  <diagram name="Page-1" id="2ca16b54-16f6-2749-3443-fa8db7711227">
    <mxGraphModel dx="2424" dy="876" grid="1" gridSize="10" guides="1" tooltips="1" connect="1" arrows="1" fold="1" page="1" pageScale="1" pageWidth="1100" pageHeight="850" background="none" math="0" shadow="0">
      <root>
        <mxCell id="0" />
        <mxCell id="1" parent="0" />
        <mxCell id="zLzkGzaJCAF4ok3F2jY1-9" style="edgeStyle=orthogonalEdgeStyle;rounded=0;orthogonalLoop=1;jettySize=auto;html=1;" edge="1" parent="1" source="2ed32ef02a7f4228-8" target="zLzkGzaJCAF4ok3F2jY1-8">
          <mxGeometry relative="1" as="geometry" />
        </mxCell>
        <mxCell id="zLzkGzaJCAF4ok3F2jY1-11" style="edgeStyle=orthogonalEdgeStyle;rounded=0;orthogonalLoop=1;jettySize=auto;html=1;exitX=0;exitY=0.25;exitDx=0;exitDy=0;" edge="1" parent="1" source="2ed32ef02a7f4228-8" target="zLzkGzaJCAF4ok3F2jY1-7">
          <mxGeometry relative="1" as="geometry" />
        </mxCell>
        <mxCell id="zLzkGzaJCAF4ok3F2jY1-12" style="edgeStyle=orthogonalEdgeStyle;rounded=0;orthogonalLoop=1;jettySize=auto;html=1;" edge="1" parent="1" source="2ed32ef02a7f4228-8" target="zLzkGzaJCAF4ok3F2jY1-5">
          <mxGeometry relative="1" as="geometry" />
        </mxCell>
        <mxCell id="zLzkGzaJCAF4ok3F2jY1-13" style="edgeStyle=orthogonalEdgeStyle;rounded=0;orthogonalLoop=1;jettySize=auto;html=1;exitX=1;exitY=0.25;exitDx=0;exitDy=0;" edge="1" parent="1" source="2ed32ef02a7f4228-8" target="zLzkGzaJCAF4ok3F2jY1-4">
          <mxGeometry relative="1" as="geometry" />
        </mxCell>
        <mxCell id="zLzkGzaJCAF4ok3F2jY1-14" style="edgeStyle=orthogonalEdgeStyle;rounded=0;orthogonalLoop=1;jettySize=auto;html=1;" edge="1" parent="1" source="2ed32ef02a7f4228-8" target="zLzkGzaJCAF4ok3F2jY1-3">
          <mxGeometry relative="1" as="geometry" />
        </mxCell>
        <mxCell id="2ed32ef02a7f4228-8" value="&lt;div style=&quot;box-sizing: border-box ; width: 100% ; background: #e4e4e4 ; padding: 2px&quot;&gt;FATO_POSICAOFINANCEIRA&lt;/div&gt;&lt;table style=&quot;width: 100% ; font-size: 1em&quot; cellpadding=&quot;2&quot; cellspacing=&quot;0&quot;&gt;&lt;tbody&gt;&lt;tr&gt;&lt;td&gt;SK_POSICAOFINANCEIRA&lt;br&gt;SK_CLIENTE&lt;br&gt;SK_DATA&lt;br&gt;SK_FATO&lt;br&gt;SK_MARCA&lt;br&gt;Valor Pago&lt;br&gt;Saldo Devedor&lt;br&gt;VGV&lt;/td&gt;&lt;td&gt;&lt;/td&gt;&lt;/tr&gt;&lt;/tbody&gt;&lt;/table&gt;" style="verticalAlign=top;align=left;overflow=fill;html=1;rounded=0;shadow=0;comic=0;labelBackgroundColor=none;strokeWidth=1;fontFamily=Verdana;fontSize=12" parent="1" vertex="1">
          <mxGeometry x="460" y="280" width="180" height="330" as="geometry" />
        </mxCell>
        <mxCell id="zLzkGzaJCAF4ok3F2jY1-3" value="&lt;div style=&quot;text-align: center ; box-sizing: border-box ; width: 100% ; background: rgb(228 , 228 , 228) ; padding: 2px&quot;&gt;DIM_CLIENTE&lt;/div&gt;&lt;table style=&quot;width: 100% ; font-size: 1em&quot; cellpadding=&quot;2&quot; cellspacing=&quot;0&quot;&gt;&lt;tbody&gt;&lt;tr&gt;&lt;td style=&quot;text-align: center&quot;&gt;SK_CLIENTE&lt;br&gt;Ativo&lt;br&gt;Bloco&lt;br&gt;DocumentoCliente&lt;br&gt;Id&lt;br&gt;Nome&lt;br&gt;Obra&lt;br&gt;Percentual Pago&lt;br&gt;Unidade&lt;/td&gt;&lt;td&gt;&lt;/td&gt;&lt;/tr&gt;&lt;/tbody&gt;&lt;/table&gt;" style="verticalAlign=top;align=left;overflow=fill;html=1;rounded=0;shadow=0;comic=0;labelBackgroundColor=none;strokeWidth=1;fontFamily=Verdana;fontSize=12" vertex="1" parent="1">
          <mxGeometry x="460" y="50" width="180" height="160" as="geometry" />
        </mxCell>
        <mxCell id="zLzkGzaJCAF4ok3F2jY1-4" value="&lt;div style=&quot;text-align: center ; box-sizing: border-box ; width: 100% ; background: rgb(228 , 228 , 228) ; padding: 2px&quot;&gt;DIM_REGIAO&lt;/div&gt;&lt;table style=&quot;width: 100% ; font-size: 1em&quot; cellpadding=&quot;2&quot; cellspacing=&quot;0&quot;&gt;&lt;tbody&gt;&lt;tr&gt;&lt;td&gt;SK_REGIAO&lt;br&gt;Regiao&lt;br&gt;Id_regiao&lt;br&gt;&lt;/td&gt;&lt;td&gt;&lt;/td&gt;&lt;/tr&gt;&lt;/tbody&gt;&lt;/table&gt;" style="verticalAlign=top;align=left;overflow=fill;html=1;rounded=0;shadow=0;comic=0;labelBackgroundColor=none;strokeWidth=1;fontFamily=Verdana;fontSize=12" vertex="1" parent="1">
          <mxGeometry x="800" y="130" width="180" height="160" as="geometry" />
        </mxCell>
        <mxCell id="zLzkGzaJCAF4ok3F2jY1-5" value="&lt;div style=&quot;text-align: center ; box-sizing: border-box ; width: 100% ; background: rgb(228 , 228 , 228) ; padding: 2px&quot;&gt;DIM_DATA&lt;/div&gt;SK_DATA&lt;br&gt;ID_evento_data&lt;br&gt;Data" style="verticalAlign=top;align=left;overflow=fill;html=1;rounded=0;shadow=0;comic=0;labelBackgroundColor=none;strokeWidth=1;fontFamily=Verdana;fontSize=12" vertex="1" parent="1">
          <mxGeometry x="780" y="425" width="180" height="160" as="geometry" />
        </mxCell>
        <mxCell id="zLzkGzaJCAF4ok3F2jY1-7" value="&lt;div style=&quot;text-align: center ; box-sizing: border-box ; width: 100% ; background: rgb(228 , 228 , 228) ; padding: 2px&quot;&gt;DIM_MARCA&lt;/div&gt;&lt;div style=&quot;text-align: center&quot;&gt;&lt;span&gt;SK_MARCA&lt;/span&gt;&lt;/div&gt;&lt;div style=&quot;text-align: center&quot;&gt;&lt;span&gt;Id_Regiao&lt;/span&gt;&lt;/div&gt;&lt;div style=&quot;text-align: center&quot;&gt;&lt;span&gt;Regiao&lt;/span&gt;&lt;/div&gt;&lt;table style=&quot;width: 100% ; font-size: 1em&quot; cellpadding=&quot;2&quot; cellspacing=&quot;0&quot;&gt;&lt;tbody&gt;&lt;tr&gt;&lt;td&gt;&lt;br&gt;&lt;/td&gt;&lt;td&gt;&lt;/td&gt;&lt;/tr&gt;&lt;/tbody&gt;&lt;/table&gt;" style="verticalAlign=top;align=left;overflow=fill;html=1;rounded=0;shadow=0;comic=0;labelBackgroundColor=none;strokeWidth=1;fontFamily=Verdana;fontSize=12" vertex="1" parent="1">
          <mxGeometry x="130" y="190" width="180" height="160" as="geometry" />
        </mxCell>
        <mxCell id="zLzkGzaJCAF4ok3F2jY1-8" value="&lt;div style=&quot;box-sizing: border-box ; width: 100% ; background: rgb(228 , 228 , 228) ; padding: 2px&quot;&gt;DIM_SITE&lt;/div&gt;&lt;div style=&quot;text-align: left&quot;&gt;&lt;span&gt;SK_SITE&lt;/span&gt;&lt;/div&gt;&lt;div style=&quot;text-align: left&quot;&gt;Id_Pagina&lt;/div&gt;&lt;div style=&quot;text-align: left&quot;&gt;Atividade&lt;/div&gt;&lt;div style=&quot;text-align: left&quot;&gt;Pagina&lt;/div&gt;" style="verticalAlign=top;align=center;overflow=fill;html=1;rounded=0;shadow=0;comic=0;labelBackgroundColor=none;strokeWidth=1;fontFamily=Verdana;fontSize=12" vertex="1" parent="1">
          <mxGeometry x="130" y="425" width="180" height="160" as="geometry" />
        </mxCell>
      </root>
    </mxGraphModel>
  </diagram>
</mxfile>
